<?xml version="1.0" encoding="UTF-8" standalone="no"?>
<!DOCTYPE svg PUBLIC "-//W3C//DTD SVG 1.1//EN"
 "http://www.w3.org/Graphics/SVG/1.1/DTD/svg11.dtd">
<!-- Generated by graphviz version 2.40.1 (20161225.0304)
 -->
<!-- Title: %3 Pages: 1 -->
<svg width="88pt" height="305pt"
 viewBox="0.00 0.00 88.00 304.60" xmlns="http://www.w3.org/2000/svg" xmlns:xlink="http://www.w3.org/1999/xlink">
<g id="graph0" class="graph" transform="scale(1 1) rotate(0) translate(4 300.5963)">
<title>%3</title>
<polygon fill="#ffffff" stroke="transparent" points="-4,4 -4,-300.5963 84,-300.5963 84,4 -4,4"/>
<!-- fake -->
<g id="node1" class="node">
<title>fake</title>
</g>
<!-- q0 -->
<g id="node2" class="node">
<title>q0</title>
<ellipse fill="none" stroke="#000000" cx="27" cy="-205.5963" rx="27" ry="18"/>
<text text-anchor="middle" x="27" y="-201.8963" font-family="Times,serif" font-size="14.00" fill="#000000">q0</text>
</g>
<!-- fake&#45;&gt;q0 -->
<g id="edge1" class="edge">
<title>fake&#45;&gt;q0</title>
<path fill="none" stroke="#000000" stroke-width="2" d="M27,-260.5514C27,-252.4791 27,-242.7727 27,-233.778"/>
<polygon fill="#000000" stroke="#000000" stroke-width="2" points="30.5001,-233.6866 27,-223.6867 23.5001,-233.6867 30.5001,-233.6866"/>
</g>
<!-- q0&#45;&gt;q0 -->
<g id="edge2" class="edge">
<title>q0&#45;&gt;q0</title>
<path fill="none" stroke="#000000" d="M52.4435,-212.287C63.0278,-212.7484 72,-210.5182 72,-205.5963 72,-202.3663 68.136,-200.2955 62.4881,-199.384"/>
<polygon fill="#000000" stroke="#000000" points="62.5987,-195.8853 52.4435,-198.9056 62.2656,-202.8774 62.5987,-195.8853"/>
<text text-anchor="middle" x="76" y="-201.8963" font-family="Times,serif" font-size="14.00" fill="#000000">0</text>
</g>
<!-- q1 -->
<g id="node3" class="node">
<title>q1</title>
<ellipse fill="none" stroke="#000000" cx="27" cy="-111.7982" rx="20.6302" ry="20.6302"/>
<ellipse fill="none" stroke="#000000" cx="27" cy="-111.7982" rx="24.5979" ry="24.5979"/>
<text text-anchor="middle" x="27" y="-108.0982" font-family="Times,serif" font-size="14.00" fill="#000000">q1</text>
</g>
<!-- q0&#45;&gt;q1 -->
<g id="edge3" class="edge">
<title>q0&#45;&gt;q1</title>
<path fill="none" stroke="#000000" d="M19.2648,-187.9848C17.1157,-182.2372 15.0769,-175.7491 14,-169.5963 12.5787,-161.4756 13.3219,-152.7738 15.0136,-144.651"/>
<polygon fill="#000000" stroke="#000000" points="18.4564,-145.3169 17.572,-134.7591 11.6794,-143.5641 18.4564,-145.3169"/>
<text text-anchor="middle" x="18" y="-158.3963" font-family="Times,serif" font-size="14.00" fill="#000000">1</text>
</g>
<!-- q1&#45;&gt;q0 -->
<g id="edge4" class="edge">
<title>q1&#45;&gt;q0</title>
<path fill="none" stroke="#000000" d="M27,-136.9189C27,-149.3795 27,-164.4764 27,-177.339"/>
<polygon fill="#000000" stroke="#000000" points="23.5001,-177.511 27,-187.5111 30.5001,-177.5111 23.5001,-177.511"/>
<text text-anchor="middle" x="31" y="-158.3963" font-family="Times,serif" font-size="14.00" fill="#000000">0</text>
</g>
<!-- q2 -->
<g id="node4" class="node">
<title>q2</title>
<ellipse fill="none" stroke="#000000" cx="27" cy="-18" rx="27" ry="18"/>
<text text-anchor="middle" x="27" y="-14.3" font-family="Times,serif" font-size="14.00" fill="#000000">q2</text>
</g>
<!-- q1&#45;&gt;q2 -->
<g id="edge5" class="edge">
<title>q1&#45;&gt;q2</title>
<path fill="none" stroke="#000000" d="M17.572,-88.8373C14.3354,-78.2742 11.9786,-65.5494 14,-54 14.5048,-51.1159 15.2209,-48.1581 16.0607,-45.2374"/>
<polygon fill="#000000" stroke="#000000" points="19.4274,-46.2051 19.2648,-35.6115 12.7856,-43.9943 19.4274,-46.2051"/>
<text text-anchor="middle" x="18" y="-57.8" font-family="Times,serif" font-size="14.00" fill="#000000">1</text>
</g>
<!-- q2&#45;&gt;q1 -->
<g id="edge7" class="edge">
<title>q2&#45;&gt;q1</title>
<path fill="none" stroke="#000000" d="M27,-36.0661C27,-47.5173 27,-62.716 27,-76.4911"/>
<polygon fill="#000000" stroke="#000000" points="23.5001,-76.6619 27,-86.662 30.5001,-76.662 23.5001,-76.6619"/>
<text text-anchor="middle" x="31" y="-57.8" font-family="Times,serif" font-size="14.00" fill="#000000">1</text>
</g>
<!-- q2&#45;&gt;q2 -->
<g id="edge6" class="edge">
<title>q2&#45;&gt;q2</title>
<path fill="none" stroke="#000000" d="M51.5325,-25.752C62.5078,-26.4902 72,-23.9063 72,-18 72,-14.0317 67.7151,-11.5632 61.5743,-10.5944"/>
<polygon fill="#000000" stroke="#000000" points="61.6472,-7.0949 51.5325,-10.248 61.4059,-14.0908 61.6472,-7.0949"/>
<text text-anchor="middle" x="76" y="-14.3" font-family="Times,serif" font-size="14.00" fill="#000000">0</text>
</g>
</g>
</svg>
