<?xml version="1.0" encoding="UTF-8" standalone="no"?>
<!DOCTYPE svg PUBLIC "-//W3C//DTD SVG 1.1//EN"
 "http://www.w3.org/Graphics/SVG/1.1/DTD/svg11.dtd">
<!-- Generated by graphviz version 2.40.1 (20161225.0304)
 -->
<!-- Title: %3 Pages: 1 -->
<svg width="242pt" height="314pt"
 viewBox="0.00 0.00 242.35 313.70" xmlns="http://www.w3.org/2000/svg" xmlns:xlink="http://www.w3.org/1999/xlink">
<g id="graph0" class="graph" transform="scale(1 1) rotate(0) translate(4 309.6955)">
<title>%3</title>
<polygon fill="#ffffff" stroke="transparent" points="-4,4 -4,-309.6955 238.3478,-309.6955 238.3478,4 -4,4"/>
<!-- fake -->
<g id="node1" class="node">
<title>fake</title>
</g>
<!-- q00 -->
<g id="node2" class="node">
<title>q00</title>
<ellipse fill="none" stroke="#000000" cx="139.3478" cy="-214.6955" rx="27" ry="18"/>
<text text-anchor="middle" x="139.3478" y="-210.9955" font-family="Times,serif" font-size="14.00" fill="#000000">q00</text>
</g>
<!-- fake&#45;&gt;q00 -->
<g id="edge1" class="edge">
<title>fake&#45;&gt;q00</title>
<path fill="none" stroke="#000000" stroke-width="2" d="M139.3478,-269.6506C139.3478,-261.5783 139.3478,-251.8719 139.3478,-242.8772"/>
<polygon fill="#000000" stroke="#000000" stroke-width="2" points="142.8478,-242.7858 139.3478,-232.7859 135.8478,-242.7859 142.8478,-242.7858"/>
</g>
<!-- q11 -->
<g id="node3" class="node">
<title>q11</title>
<ellipse fill="none" stroke="#000000" cx="92.3478" cy="-127.6955" rx="27" ry="18"/>
<text text-anchor="middle" x="92.3478" y="-123.9955" font-family="Times,serif" font-size="14.00" fill="#000000">q11</text>
</g>
<!-- q00&#45;&gt;q11 -->
<g id="edge2" class="edge">
<title>q00&#45;&gt;q11</title>
<path fill="none" stroke="#000000" d="M130.0621,-197.5071C123.3029,-184.9955 114.0307,-167.8321 106.3717,-153.6547"/>
<polygon fill="#000000" stroke="#000000" points="109.4466,-151.9828 101.6141,-144.8482 103.2879,-155.31 109.4466,-151.9828"/>
<text text-anchor="middle" x="123.3478" y="-167.4955" font-family="Times,serif" font-size="14.00" fill="#000000">0</text>
</g>
<!-- q33 -->
<g id="node5" class="node">
<title>q33</title>
<ellipse fill="none" stroke="#000000" cx="155.3478" cy="-29.3478" rx="27" ry="18"/>
<text text-anchor="middle" x="155.3478" y="-25.6478" font-family="Times,serif" font-size="14.00" fill="#000000">q33</text>
</g>
<!-- q00&#45;&gt;q33 -->
<g id="edge3" class="edge">
<title>q00&#45;&gt;q33</title>
<path fill="none" stroke="#000000" d="M140.911,-196.5861C143.707,-164.1971 149.5822,-96.1368 152.9113,-57.5717"/>
<polygon fill="#000000" stroke="#000000" points="156.405,-57.7946 153.7781,-47.5307 149.431,-57.1926 156.405,-57.7946"/>
<text text-anchor="middle" x="152.3478" y="-123.9955" font-family="Times,serif" font-size="14.00" fill="#000000">1</text>
</g>
<!-- q22 -->
<g id="node4" class="node">
<title>q22</title>
<ellipse fill="none" stroke="#000000" cx="29.3478" cy="-29.3478" rx="25.2169" ry="25.2169"/>
<ellipse fill="none" stroke="#000000" cx="29.3478" cy="-29.3478" rx="29.1963" ry="29.1963"/>
<text text-anchor="middle" x="29.3478" y="-25.6478" font-family="Times,serif" font-size="14.00" fill="#000000">q22</text>
</g>
<!-- q11&#45;&gt;q22 -->
<g id="edge5" class="edge">
<title>q11&#45;&gt;q22</title>
<path fill="none" stroke="#000000" d="M81.6607,-111.0121C73.2484,-97.88 61.2517,-79.1522 50.8683,-62.943"/>
<polygon fill="#000000" stroke="#000000" points="53.64,-60.781 45.2987,-54.2485 47.7456,-64.5569 53.64,-60.781"/>
<text text-anchor="middle" x="72.3478" y="-80.4955" font-family="Times,serif" font-size="14.00" fill="#000000">1</text>
</g>
<!-- q11&#45;&gt;q33 -->
<g id="edge4" class="edge">
<title>q11&#45;&gt;q33</title>
<path fill="none" stroke="#000000" d="M103.0348,-111.0121C112.9001,-95.6117 127.6952,-72.5155 139.0366,-54.8107"/>
<polygon fill="#000000" stroke="#000000" points="142.1613,-56.4214 144.6082,-46.1129 136.267,-52.6455 142.1613,-56.4214"/>
<text text-anchor="middle" x="128.3478" y="-80.4955" font-family="Times,serif" font-size="14.00" fill="#000000">0</text>
</g>
<!-- q22&#45;&gt;q22 -->
<g id="edge6" class="edge">
<title>q22&#45;&gt;q22</title>
<path fill="none" stroke="#000000" d="M58.4763,-34.409C68.5557,-34.4626 76.6955,-32.7755 76.6955,-29.3478 76.6955,-27.2054 73.5159,-25.743 68.6704,-24.9606"/>
<polygon fill="#000000" stroke="#000000" points="68.6855,-21.454 58.4763,-24.2865 68.2235,-28.4388 68.6855,-21.454"/>
<text text-anchor="middle" x="80.6955" y="-25.6478" font-family="Times,serif" font-size="14.00" fill="#000000">0</text>
</g>
<!-- q22&#45;&gt;q22 -->
<g id="edge7" class="edge">
<title>q22&#45;&gt;q22</title>
<path fill="none" stroke="#000000" d="M57.5588,-38.5804C76.3776,-41.1792 94.6955,-38.1017 94.6955,-29.3478 94.6955,-22.1668 82.3692,-18.8056 67.5514,-19.264"/>
<polygon fill="#000000" stroke="#000000" points="67.2257,-15.779 57.5588,-20.1151 67.8198,-22.7537 67.2257,-15.779"/>
<text text-anchor="middle" x="98.6955" y="-25.6478" font-family="Times,serif" font-size="14.00" fill="#000000">1</text>
</g>
<!-- q33&#45;&gt;q33 -->
<g id="edge8" class="edge">
<title>q33&#45;&gt;q33</title>
<path fill="none" stroke="#000000" d="M181.6943,-34.3905C191.881,-34.6146 200.3478,-32.9337 200.3478,-29.3478 200.3478,-27.0505 196.873,-25.5351 191.6973,-24.8015"/>
<polygon fill="#000000" stroke="#000000" points="191.8556,-21.3051 181.6943,-24.305 191.5085,-28.2965 191.8556,-21.3051"/>
<text text-anchor="middle" x="204.3478" y="-25.6478" font-family="Times,serif" font-size="14.00" fill="#000000">0</text>
</g>
<!-- q33&#45;&gt;q33 -->
<g id="edge9" class="edge">
<title>q33&#45;&gt;q33</title>
<path fill="none" stroke="#000000" d="M179.265,-38.0489C198.4962,-41.5294 218.3478,-38.629 218.3478,-29.3478 218.3478,-21.7342 204.9894,-18.4145 189.5731,-19.3885"/>
<polygon fill="#000000" stroke="#000000" points="188.7673,-15.9608 179.265,-20.6466 189.6154,-22.9092 188.7673,-15.9608"/>
<text text-anchor="middle" x="222.3478" y="-25.6478" font-family="Times,serif" font-size="14.00" fill="#000000">1</text>
</g>
</g>
</svg>
