<?xml version="1.0" encoding="UTF-8" standalone="no"?>
<!DOCTYPE svg PUBLIC "-//W3C//DTD SVG 1.1//EN"
 "http://www.w3.org/Graphics/SVG/1.1/DTD/svg11.dtd">
<!-- Generated by graphviz version 2.40.1 (20161225.0304)
 -->
<!-- Title: %3 Pages: 1 -->
<svg width="511pt" height="643pt"
 viewBox="0.00 0.00 510.98 643.07" xmlns="http://www.w3.org/2000/svg" xmlns:xlink="http://www.w3.org/1999/xlink">
<g id="graph0" class="graph" transform="scale(1 1) rotate(0) translate(4 639.0715)">
<title>%3</title>
<polygon fill="#ffffff" stroke="transparent" points="-4,4 -4,-639.0715 506.9839,-639.0715 506.9839,4 -4,4"/>
<!-- fake -->
<g id="node1" class="node">
<title>fake</title>
</g>
<!-- {{q0,q2},q00} -->
<g id="node2" class="node">
<title>{{q0,q2},q00}</title>
<ellipse fill="none" stroke="#000000" cx="435.3899" cy="-544.0715" rx="67.6881" ry="18"/>
<text text-anchor="middle" x="435.3899" y="-540.3715" font-family="Times,serif" font-size="14.00" fill="#000000">{{q0,q2},q00}</text>
</g>
<!-- fake&#45;&gt;{{q0,q2},q00} -->
<g id="edge1" class="edge">
<title>fake&#45;&gt;{{q0,q2},q00}</title>
<path fill="none" stroke="#000000" stroke-width="2" d="M435.3899,-599.0266C435.3899,-590.9543 435.3899,-581.2479 435.3899,-572.2532"/>
<polygon fill="#000000" stroke="#000000" stroke-width="2" points="438.8899,-572.1618 435.3899,-562.1619 431.8899,-572.1619 438.8899,-572.1618"/>
</g>
<!-- {{q0,q2},q11} -->
<g id="node3" class="node">
<title>{{q0,q2},q11}</title>
<ellipse fill="none" stroke="#000000" cx="374.3899" cy="-457.0715" rx="66.8882" ry="18"/>
<text text-anchor="middle" x="374.3899" y="-453.3715" font-family="Times,serif" font-size="14.00" fill="#000000">{{q0,q2},q11}</text>
</g>
<!-- {{q0,q2},q00}&#45;&gt;{{q0,q2},q11} -->
<g id="edge10" class="edge">
<title>{{q0,q2},q00}&#45;&gt;{{q0,q2},q11}</title>
<path fill="none" stroke="#000000" d="M422.7506,-526.0451C414.0231,-513.5976 402.283,-496.8535 392.5557,-482.9802"/>
<polygon fill="#000000" stroke="#000000" points="395.4109,-480.9558 386.8042,-474.7772 389.6794,-484.9745 395.4109,-480.9558"/>
<text text-anchor="middle" x="412.3899" y="-496.8715" font-family="Times,serif" font-size="14.00" fill="#000000">0</text>
</g>
<!-- {q1,q33} -->
<g id="node5" class="node">
<title>{q1,q33}</title>
<ellipse fill="none" stroke="#000000" cx="404.3899" cy="-50.1459" rx="46.2806" ry="46.2806"/>
<ellipse fill="none" stroke="#000000" cx="404.3899" cy="-50.1459" rx="50.2922" ry="50.2922"/>
<text text-anchor="middle" x="404.3899" y="-46.4459" font-family="Times,serif" font-size="14.00" fill="#000000">{q1,q33}</text>
</g>
<!-- {{q0,q2},q00}&#45;&gt;{q1,q33} -->
<g id="edge11" class="edge">
<title>{{q0,q2},q00}&#45;&gt;{q1,q33}</title>
<path fill="none" stroke="#000000" d="M442.4976,-525.9146C463.6806,-469.0548 522.2046,-289.9619 477.3899,-151.2918 470.7512,-130.7497 458.2133,-110.8687 445.3773,-94.2487"/>
<polygon fill="#000000" stroke="#000000" points="448.0533,-91.9908 439.0766,-86.3632 442.5846,-96.3605 448.0533,-91.9908"/>
<text text-anchor="middle" x="481.3899" y="-409.8715" font-family="Times,serif" font-size="14.00" fill="#000000">1</text>
</g>
<!-- {{q1,q22},{{q0,q2},q22}} -->
<g id="node4" class="node">
<title>{{q1,q22},{{q0,q2},q22}}</title>
<ellipse fill="none" stroke="#000000" cx="118.3899" cy="-269.6817" rx="114.2835" ry="114.2835"/>
<ellipse fill="none" stroke="#000000" cx="118.3899" cy="-269.6817" rx="118.2798" ry="118.2798"/>
<text text-anchor="middle" x="118.3899" y="-265.9817" font-family="Times,serif" font-size="14.00" fill="#000000">{{q1,q22},{{q0,q2},q22}}</text>
</g>
<!-- {{q0,q2},q11}&#45;&gt;{{q1,q22},{{q0,q2},q22}} -->
<g id="edge5" class="edge">
<title>{{q0,q2},q11}&#45;&gt;{{q1,q22},{{q0,q2},q22}}</title>
<path fill="none" stroke="#000000" d="M351.22,-440.1114C322.0165,-418.7347 269.8771,-380.5691 222.3317,-345.7662"/>
<polygon fill="#000000" stroke="#000000" points="224.268,-342.8461 214.1315,-339.7637 220.1334,-348.4946 224.268,-342.8461"/>
<text text-anchor="middle" x="322.3899" y="-409.8715" font-family="Times,serif" font-size="14.00" fill="#000000">1</text>
</g>
<!-- {{q0,q2},q33} -->
<g id="node6" class="node">
<title>{{q0,q2},q33}</title>
<ellipse fill="none" stroke="#000000" cx="374.3899" cy="-269.6817" rx="67.6881" ry="18"/>
<text text-anchor="middle" x="374.3899" y="-265.9817" font-family="Times,serif" font-size="14.00" fill="#000000">{{q0,q2},q33}</text>
</g>
<!-- {{q0,q2},q11}&#45;&gt;{{q0,q2},q33} -->
<g id="edge4" class="edge">
<title>{{q0,q2},q11}&#45;&gt;{{q0,q2},q33}</title>
<path fill="none" stroke="#000000" d="M374.3899,-438.7626C374.3899,-405.9325 374.3899,-336.8525 374.3899,-297.9165"/>
<polygon fill="#000000" stroke="#000000" points="377.8899,-297.789 374.3899,-287.789 370.8899,-297.789 377.8899,-297.789"/>
<text text-anchor="middle" x="378.3899" y="-409.8715" font-family="Times,serif" font-size="14.00" fill="#000000">0</text>
</g>
<!-- {{q1,q22},{{q0,q2},q22}}&#45;&gt;{{q1,q22},{{q0,q2},q22}} -->
<g id="edge6" class="edge">
<title>{{q1,q22},{{q0,q2},q22}}&#45;&gt;{{q1,q22},{{q0,q2},q22}}</title>
<path fill="none" stroke="#000000" d="M236.7072,-280.3542C247.7857,-278.162 254.7797,-274.6045 254.7797,-269.6817 254.7797,-266.451 251.7676,-263.8084 246.5658,-261.7538"/>
<polygon fill="#000000" stroke="#000000" points="247.2796,-258.3195 236.7072,-259.0091 245.4021,-265.063 247.2796,-258.3195"/>
<text text-anchor="middle" x="258.7797" y="-265.9817" font-family="Times,serif" font-size="14.00" fill="#000000">0</text>
</g>
<!-- {{q1,q22},{{q0,q2},q22}}&#45;&gt;{{q1,q22},{{q0,q2},q22}} -->
<g id="edge7" class="edge">
<title>{{q1,q22},{{q0,q2},q22}}&#45;&gt;{{q1,q22},{{q0,q2},q22}}</title>
<path fill="none" stroke="#000000" d="M234.1978,-295.122C256.7587,-292.1676 272.7797,-283.6875 272.7797,-269.6817 272.7797,-257.8642 261.3741,-249.9806 244.2581,-246.0309"/>
<polygon fill="#000000" stroke="#000000" points="244.6563,-242.5469 234.1978,-244.2413 243.4303,-249.4387 244.6563,-242.5469"/>
<text text-anchor="middle" x="276.7797" y="-265.9817" font-family="Times,serif" font-size="14.00" fill="#000000">1</text>
</g>
<!-- {q1,q33}&#45;&gt;{{q0,q2},q33} -->
<g id="edge2" class="edge">
<title>{q1,q33}&#45;&gt;{{q0,q2},q33}</title>
<path fill="none" stroke="#000000" d="M394.4999,-99.5719C393.3775,-105.8602 392.3088,-112.2184 391.3899,-118.2918 384.9412,-160.9131 379.813,-210.6273 376.9378,-241.1272"/>
<polygon fill="#000000" stroke="#000000" points="373.4194,-241.1657 375.9822,-251.4459 380.3895,-241.8113 373.4194,-241.1657"/>
<text text-anchor="middle" x="395.3899" y="-122.0918" font-family="Times,serif" font-size="14.00" fill="#000000">0</text>
</g>
<!-- {q1,q33}&#45;&gt;{{q0,q2},q33} -->
<g id="edge3" class="edge">
<title>{q1,q33}&#45;&gt;{{q0,q2},q33}</title>
<path fill="none" stroke="#000000" d="M401.5982,-100.3498C400.7612,-111.2318 399.705,-122.6632 398.3899,-133.2918 393.7243,-170.9972 385.6739,-214.1222 380.1951,-241.6089"/>
<polygon fill="#000000" stroke="#000000" points="376.7103,-241.1843 378.1631,-251.6791 383.572,-242.5689 376.7103,-241.1843"/>
<text text-anchor="middle" x="403.3899" y="-122.0918" font-family="Times,serif" font-size="14.00" fill="#000000">1</text>
</g>
<!-- {{q0,q2},q33}&#45;&gt;{q1,q33} -->
<g id="edge9" class="edge">
<title>{{q0,q2},q33}&#45;&gt;{q1,q33}</title>
<path fill="none" stroke="#000000" d="M372.6681,-251.2768C370.4458,-222.5496 367.902,-165.4542 377.3899,-118.2918 378.2228,-114.1514 379.2935,-109.9393 380.5264,-105.7436"/>
<polygon fill="#000000" stroke="#000000" points="383.9224,-106.6165 383.6618,-96.0249 377.2605,-104.4672 383.9224,-106.6165"/>
<text text-anchor="middle" x="381.3899" y="-122.0918" font-family="Times,serif" font-size="14.00" fill="#000000">1</text>
</g>
<!-- {{q0,q2},q33}&#45;&gt;{{q0,q2},q33} -->
<g id="edge8" class="edge">
<title>{{q0,q2},q33}&#45;&gt;{{q0,q2},q33}</title>
<path fill="none" stroke="#000000" d="M394.5904,-286.9203C423.7485,-303.7169 459.9839,-297.9707 459.9839,-269.6817 459.9839,-244.2657 430.735,-237.0461 403.6481,-248.0229"/>
<polygon fill="#000000" stroke="#000000" points="402.0424,-244.9119 394.5904,-252.443 405.1124,-251.2028 402.0424,-244.9119"/>
<text text-anchor="middle" x="463.9839" y="-265.9817" font-family="Times,serif" font-size="14.00" fill="#000000">0</text>
</g>
</g>
</svg>
